<svg xmlns="http://www.w3.org/2000/svg" width="128" height="128" viewBox="0 0 128 128" role="img" aria-labelledby="title desc">
  <title id="title">Persistent glass sidebar</title>
  <desc id="desc">A translucent blue sidebar beside an opaque conversation surface with saved appearance controls.</desc>
  <rect x="12" y="18" width="104" height="92" rx="18" fill="#F8FAFF" stroke="#172033" stroke-width="4"/>
  <path d="M12 42h104" stroke="#B8C6E3" stroke-width="3"/>
  <circle cx="28" cy="30" r="4" fill="#FF5F57"/>
  <circle cx="42" cy="30" r="4" fill="#FFBD2E"/>
  <circle cx="56" cy="30" r="4" fill="#28C840"/>
  <path d="M12 42h34v68H30c-9.941 0-18-8.059-18-18V42Z" fill="#BFD2FF" fill-opacity=".72"/>
  <path d="M46 42v68" stroke="#4C7FF0" stroke-width="3"/>
  <rect x="22" y="54" width="14" height="8" rx="4" fill="#4C7FF0"/>
  <rect x="22" y="70" width="14" height="6" rx="3" fill="#789CF1"/>
  <rect x="56" y="56" width="46" height="11" rx="5.5" fill="#DCE5F5"/>
  <rect x="56" y="76" width="34" height="7" rx="3.5" fill="#C6D1E3"/>
  <circle cx="94" cy="94" r="10" fill="#4C7FF0"/>
  <path d="M90 94.5l3 3 5-7" fill="none" stroke="#FFFFFF" stroke-linecap="round" stroke-linejoin="round" stroke-width="3"/>
</svg>
