<?xml version="1.0" encoding="UTF-8" standalone="no"?>
<!DOCTYPE svg PUBLIC "-//W3C//DTD SVG 1.1//EN" "http://www.w3.org/Graphics/SVG/1.1/DTD/svg11.dtd">
<svg width="100%" height="100%" viewBox="0 0 1200 360" version="1.1" xmlns="http://www.w3.org/2000/svg" xmlns:xlink="http://www.w3.org/1999/xlink" xml:space="preserve" xmlns:serif="http://www.serif.com/" style="fill-rule:evenodd;clip-rule:evenodd;">
    <path d="M1199,29L1199,331C1199,346.454 1186.454,359 1171,359L29,359C13.546,359 1,346.454 1,331L1,29C1,13.546 13.546,1 29,1L1171,1C1186.454,1 1199,13.546 1199,29Z" style="fill:rgb(249,250,251);stroke:rgb(225,229,238);stroke-width:2px;"/>
    <g>
        <g transform="matrix(1,0,0,1,46,48)">
            <path d="M242,24L242,186C242,199.246 231.246,210 218,210L24,210C10.754,210 0,199.246 0,186L0,24C0,10.754 10.754,0 24,0L218,0C231.246,0 242,10.754 242,24Z" style="fill:white;stroke:rgb(207,211,218);stroke-width:1px;"/>
            <path d="M70,37L70,55C70,63.279 63.279,70 55,70L37,70C28.721,70 22,63.279 22,55L22,37C22,28.721 28.721,22 37,22L55,22C63.279,22 70,28.721 70,37Z" style="fill:rgb(228,237,253);"/>
            <path d="M36,46L56,46M46,36L46,56" style="fill-rule:nonzero;stroke:rgb(65,118,230);stroke-width:4px;stroke-linecap:round;"/>
            <g transform="matrix(1,0,0,1,22,105)">
                <text x="0px" y="0px" style="font-family:'Helvetica-Bold', 'Helvetica';font-weight:700;font-size:25px;fill:rgb(15,17,21);">React renderer</text>
            </g>
            <g transform="matrix(1,0,0,1,22,138)">
                <text x="0px" y="0px" style="font-family:'Helvetica';font-size:19px;fill:rgb(97,102,107);">Existing Connection <tspan x="172.169px 184.842px " y="0px 0px ">AP</tspan>I</text>
            </g>
            <g transform="matrix(1,0,0,1,22,168)">
                <text x="0px" y="0px" style="font-family:'Helvetica';font-size:19px;fill:rgb(97,102,107);">Local dsh://app assets</text>
            </g>
        </g>
        <path d="M298,153L330,153" style="fill:none;fill-rule:nonzero;stroke:rgb(65,118,230);stroke-width:4px;stroke-linecap:round;"/>
        <path d="M321,143L331,153L321,163" style="fill:none;fill-rule:nonzero;stroke:rgb(65,118,230);stroke-width:4px;stroke-linecap:round;stroke-linejoin:round;"/>
        <g transform="matrix(1,0,0,1,340,48)">
            <path d="M242,24L242,186C242,199.246 231.246,210 218,210L24,210C10.754,210 0,199.246 0,186L0,24C0,10.754 10.754,0 24,0L218,0C231.246,0 242,10.754 242,24Z" style="fill:white;stroke:rgb(207,211,218);stroke-width:1px;"/>
            <path d="M70,37L70,55C70,63.279 63.279,70 55,70L37,70C28.721,70 22,63.279 22,55L22,37C22,28.721 28.721,22 37,22L55,22C63.279,22 70,28.721 70,37Z" style="fill:rgb(228,237,253);"/>
            <path d="M35,50L45,40L57,52" style="fill:none;fill-rule:nonzero;stroke:rgb(65,118,230);stroke-width:4px;stroke-linecap:round;stroke-linejoin:round;"/>
            <path d="M35,58L58,58" style="fill:none;fill-rule:nonzero;stroke:rgb(65,118,230);stroke-width:4px;stroke-linecap:round;"/>
            <g transform="matrix(1,0,0,1,22,105)">
                <text x="0px" y="0px" style="font-family:'Helvetica-Bold', 'Helvetica';font-weight:700;font-size:25px;fill:rgb(15,17,21);">Preload bridge</text>
            </g>
            <g transform="matrix(1,0,0,1,22,138)">
                <text x="0px" y="0px" style="font-family:'Helvetica';font-size:19px;fill:rgb(97,102,107);">Context isolated</text>
            </g>
            <g transform="matrix(1,0,0,1,22,168)">
                <text x="0px" y="0px" style="font-family:'Helvetica';font-size:19px;fill:rgb(97,102,107);">Narrow validated <tspan x="146.805px 159.478px " y="0px 0px ">AP</tspan>I</text>
            </g>
        </g>
        <path d="M592,153L624,153" style="fill:none;fill-rule:nonzero;stroke:rgb(65,118,230);stroke-width:4px;stroke-linecap:round;"/>
        <path d="M615,143L625,153L615,163" style="fill:none;fill-rule:nonzero;stroke:rgb(65,118,230);stroke-width:4px;stroke-linecap:round;stroke-linejoin:round;"/>
        <g transform="matrix(1,0,0,1,634,48)">
            <path d="M242,24L242,186C242,199.246 231.246,210 218,210L24,210C10.754,210 0,199.246 0,186L0,24C0,10.754 10.754,0 24,0L218,0C231.246,0 242,10.754 242,24Z" style="fill:white;stroke:rgb(65,118,230);stroke-width:2px;"/>
            <path d="M70,37L70,55C70,63.279 63.279,70 55,70L37,70C28.721,70 22,63.279 22,55L22,37C22,28.721 28.721,22 37,22L55,22C63.279,22 70,28.721 70,37Z" style="fill:rgb(65,118,230);"/>
            <path d="M34,47L58,47M46,35L46,59" style="fill-rule:nonzero;stroke:white;stroke-width:4px;stroke-linecap:round;"/>
            <g transform="matrix(1,0,0,1,22,105)">
                <text x="0px" y="0px" style="font-family:'Helvetica-Bold', 'Helvetica';font-weight:700;font-size:25px;fill:rgb(15,17,21);">Electron main</text>
            </g>
            <g transform="matrix(1,0,0,1,22,138)">
                <text x="0px" y="0px" style="font-family:'Helvetica';font-size:19px;fill:rgb(97,102,107);">Native actions + window</text>
            </g>
            <g transform="matrix(1,0,0,1,22,168)">
                <text x="0px" y="0px" style="font-family:'Helvetica';font-size:19px;fill:rgb(97,102,107);">Lifecycle supervision</text>
            </g>
        </g>
        <path d="M886,153L918,153" style="fill:none;fill-rule:nonzero;stroke:rgb(65,118,230);stroke-width:4px;stroke-linecap:round;"/>
        <path d="M909,143L919,153L909,163" style="fill:none;fill-rule:nonzero;stroke:rgb(65,118,230);stroke-width:4px;stroke-linecap:round;stroke-linejoin:round;"/>
        <g transform="matrix(1,0,0,1,928,48)">
            <path d="M226,24L226,186C226,199.246 215.246,210 202,210L24,210C10.754,210 0,199.246 0,186L0,24C0,10.754 10.754,0 24,0L202,0C215.246,0 226,10.754 226,24Z" style="fill:white;stroke:rgb(207,211,218);stroke-width:1px;"/>
            <path d="M70,37L70,55C70,63.279 63.279,70 55,70L37,70C28.721,70 22,63.279 22,55L22,37C22,28.721 28.721,22 37,22L55,22C63.279,22 70,28.721 70,37Z" style="fill:rgb(228,237,253);"/>
            <path d="M60,37.5C60,39.432 58.432,41 56.5,41L35.5,41C33.568,41 32,39.432 32,37.5C32,35.568 33.568,34 35.5,34L56.5,34C58.432,34 60,35.568 60,37.5Z" style="fill:rgb(103,158,254);"/>
            <path d="M60,47.5C60,49.432 58.432,51 56.5,51L35.5,51C33.568,51 32,49.432 32,47.5C32,45.568 33.568,44 35.5,44L56.5,44C58.432,44 60,45.568 60,47.5Z" style="fill:rgb(65,118,230);"/>
            <path d="M60,57.5C60,59.432 58.432,61 56.5,61L35.5,61C33.568,61 32,59.432 32,57.5C32,55.568 33.568,54 35.5,54L56.5,54C58.432,54 60,55.568 60,57.5Z" style="fill:rgb(103,158,254);"/>
            <g transform="matrix(1,0,0,1,22,105)">
                <text x="0px" y="0px" style="font-family:'Helvetica-Bold', 'Helvetica';font-weight:700;font-size:25px;fill:rgb(15,17,21);">DSH child</text>
            </g>
            <g transform="matrix(1,0,0,1,22,138)">
                <text x="0px" y="0px" style="font-family:'Helvetica';font-size:19px;fill:rgb(97,102,107);">Cordis + sessions</text>
            </g>
            <g transform="matrix(1,0,0,1,22,168)">
                <text x="0px" y="0px" style="font-family:'Helvetica';font-size:19px;fill:rgb(97,102,107);">Plugins + tools + PTYs</text>
            </g>
        </g>
    </g>
    <g transform="matrix(1,0,0,1,211,291)">
        <g transform="matrix(1.074586,0,0,1,-0,0)">
            <path d="M724,21C724,32.59 715.243,42 704.458,42L19.542,42C8.757,42 0,32.59 0,21C0,9.41 8.757,0 19.542,0L704.458,0C715.243,0 724,9.41 724,21Z" style="fill:rgb(228,237,253);"/>
        </g>
        <circle cx="24" cy="21" r="6" style="fill:rgb(65,118,230);"/>
        <g transform="matrix(1,0,0,1,42,27)">
            <text x="0px" y="0px" style="font-family:'Menlo-Bold', 'Menlo', monospace;font-weight:700;font-size:18px;fill:rgb(14,48,116);">PRIVATE IPC · NO BROWSER-FACING HTTP LISTENER · SHARED ~/.dsh HOME</text>
        </g>
    </g>
</svg>
